<?xml version="1.0" encoding="utf-8"?>
<!-- Generator: Adobe Illustrator 18.0.0, SVG Export Plug-In . SVG Version: 6.00 Build 0)  -->
<!DOCTYPE svg PUBLIC "-//W3C//DTD SVG 1.1//EN" "http://www.w3.org/Graphics/SVG/1.1/DTD/svg11.dtd">
<svg version="1.1" id="Layer_1" xmlns="http://www.w3.org/2000/svg" xmlns:xlink="http://www.w3.org/1999/xlink" x="0px" y="0px"
	 viewBox="0 0 2000 1500" enable-background="new 0 0 2000 1500" xml:space="preserve">
<rect width="2000" height="1500"/>
<g>
	<g>
		<path fill="#4D9EAB" d="M1155,682.2L994.6,842.6c-37.5,37.5-98.2,37.5-135.6,0L706.3,690c-37.5-37.5-37.5-98.2,0-135.6
			l152.8-152.9c37.5-37.5,98.2-37.5,135.6,0l0,0l-44.4,44.4v0c-12.9-12.9-33.9-12.9-46.8,0L750.8,598.7c-12.9,12.9-12.9,33.9,0,46.8
			l152.6,152.6c12.9,12.9,33.9,12.9,46.8,0l107-106.9C1083.3,665,1124.5,661.2,1155,682.2L1155,682.2z"/>
		<path fill="#4D9EAB" d="M1155.6,562.2L1155.6,562.2c-28,22.5-68.5,20.4-93.9-5.1l-37.2-37.2l44.4-44.4L1155.6,562.2z"/>
		<path fill="#6C7579" d="M1320.6,681.8l-163.4,163.4c-37.1,37.1-97.3,37.1-134.5,0l0,0l44.5-44.4l0,0c12.6,12.6,32.9,12.6,45.5,0
			l109.5-109.5C1248.6,665,1289.8,661,1320.6,681.8L1320.6,681.8z"/>
		<path fill="#6C7579" d="M1320.7,563.2l-4.6,3c-28.6,18.8-66.4,14.9-90.6-9.3l-110.4-110.4c-12.8-12.8-33.5-12.8-46.2,0
			L914.1,601.4c-12.8,12.8-12.8,33.5,0,46.2l78,78l-44.4,44.5l-74.5-74.5c-39.3-39.3-39.3-103.1,0-142.4l147.5-147.5
			c39.3-39.3,103.1-39.3,142.4,0L1320.7,563.2z"/>
	</g>
	<g>
		<path fill="#6C7579" d="M509.1,952c8.1,2.3,14.8,5.1,20,8.4c5.3,3.3,9.9,6.6,13.9,9.8c4,3.2,6.9,6,8.7,8.4l2.7,3.4l-17.3,17.4
			c-0.5-0.6-1.2-1.6-2.1-2.7c-0.9-1.2-3-3.3-6.4-6.4c-3.3-3.1-6.9-5.7-10.7-7.9c-3.8-2.2-8.7-4.3-14.8-6.2
			c-6.1-1.9-12.5-2.8-19.3-2.8c-18,0-33.3,6.2-45.8,18.7c-12.5,12.5-18.8,27.7-18.8,45.7c0,18,6.2,33.3,18.7,45.8
			c12.5,12.5,27.8,18.8,45.8,18.8c6.8,0,13.3-0.9,19.4-2.8c6.2-1.9,11.3-4.2,15.4-6.8c4.1-2.7,7.7-5.3,10.8-7.9
			c3.1-2.6,5.4-4.9,7-6.7l1.9-3l17.4,17.4c-0.6,1-1.6,2.2-3,3.8c-1.3,1.6-4.3,4.3-8.8,8.3c-4.6,4-9.4,7.5-14.5,10.5
			c-5.1,3.1-11.8,5.8-20.1,8.3c-8.3,2.5-16.8,3.7-25.5,3.7c-26,0-47.8-8.6-65.4-25.9c-17.6-17.3-26.4-38.4-26.4-63.3
			c0-25,8.8-46.1,26.4-63.4c17.6-17.3,39.4-25.9,65.4-25.9C492.6,948.5,501.1,949.7,509.1,952z"/>
		<path fill="#6C7579" d="M608.9,1124.6h-24.7V950.9h24.7V1124.6z"/>
		<path fill="#6C7579" d="M730.4,1112.3l-1.6,1.6c-0.7,0.7-2.2,1.9-4.5,3.6c-2.3,1.7-4.8,3.1-7.4,4.5c-2.7,1.3-6,2.5-10.1,3.6
			c-4,1-8.2,1.6-12.4,1.6c-14.4,0-26-4.7-34.9-14.1c-8.9-9.4-13.4-22.1-13.4-38v-69.4h24.8v69.4c0,8.6,2.7,15.7,8.2,21.3
			c5.4,5.7,12.2,8.5,20.3,8.5c9.4,0,17-3,22.6-9.1c5.6-6.1,8.4-14.6,8.4-25.6v-64.4h24.8v119.1h-24.8V1112.3z"/>
		<path fill="#6C7579" d="M850.8,1035.4c-0.6-0.6-1.6-1.6-2.8-2.7c-1.3-1.2-3.8-2.7-7.8-4.5c-3.9-1.8-7.9-2.7-11.8-2.7
			c-5.3,0-9.5,1.2-12.7,3.7c-3.1,2.5-4.7,5.4-4.7,8.7c0,3.5,1.5,6.4,4.5,8.7c3,2.3,6.7,4.1,11.3,5.3c4.5,1.2,9.4,2.7,14.6,4.5
			c5.2,1.8,10.1,3.9,14.7,6.1c4.6,2.3,8.3,5.7,11.3,10.4c3,4.7,4.5,10.3,4.5,17c0,10.3-4.1,19-12.4,26.3c-8.3,7.3-19,10.9-32.3,10.9
			c-5.8,0-11.4-0.7-16.7-2.2c-5.3-1.5-9.6-3.2-13-5.2s-6.4-4.1-8.9-6.1c-2.5-2.1-4.4-3.8-5.5-5.3l-1.8-2.3l16.1-16.1
			c0.8,1.1,2,2.5,3.6,4.2c1.6,1.7,5,3.9,10.2,6.6c5.2,2.7,10.6,4.1,16,4.1c6.6,0,11.6-1.4,14.9-4.1c3.3-2.7,5-6.3,5-10.8
			c0-3.5-1.5-6.4-4.5-8.7c-3-2.3-6.7-4.1-11.3-5.3c-4.5-1.3-9.4-2.8-14.6-4.6c-5.2-1.8-10.1-3.8-14.7-6.1
			c-4.6-2.2-8.3-5.7-11.3-10.4c-3-4.7-4.5-10.4-4.5-17c0-9.1,4-17.2,12.1-24.2c8-7,18.1-10.5,30.1-10.5c4.8,0,9.4,0.5,13.9,1.6
			c4.5,1.1,8.1,2.4,11,4c2.8,1.6,5.3,3.2,7.4,4.8c2.1,1.7,3.7,3,4.7,3.9l1.6,1.8L850.8,1035.4z"/>
		<path fill="#6C7579" d="M913.9,965.8h22.3v39.7H961v22.3h-24.8v61.8c0,4.4,1.4,8.1,4.2,10.9c2.8,2.8,6.4,4.2,10.7,4.2
			c1.9,0,3.8-0.2,5.9-0.6c2.1-0.4,3.7-0.8,4.8-1.3l1.8-0.5v22.3c-4.9,1.6-10.7,2.4-17.4,2.4c-23.2,0-34.7-12.4-34.6-37.2v-62h-22.4
			v-22.3h12.5c8.2,0,12.4-5,12.4-14.9V965.8z"/>
		<path fill="#6C7579" d="M1000.6,1073.7c1.3,8.4,5.4,15.7,12.4,21.8c7,6.1,15.3,9.2,24.9,9.2c6.9,0,13.4-1.6,19.4-4.7
			c6-3.2,10.3-6.2,12.8-9.2l3.8-4.6l16.1,16.1c-0.5,0.6-1.2,1.6-2.2,2.7s-3.2,3.2-6.5,5.9c-3.3,2.8-6.8,5.3-10.5,7.4
			c-3.7,2.1-8.5,4.1-14.5,5.9c-5.9,1.8-12.1,2.7-18.3,2.7c-16.9,0-31.4-6.2-43.7-18.6c-12.2-12.4-18.3-27.3-18.3-44.6
			c0-16.7,6-31,17.9-42.9c11.9-11.9,26.2-17.9,42.9-17.9c16.7,0,30.6,5.6,41.7,16.7c11.1,11.1,16.7,25,16.7,41.7l-1.3,12.4H1000.6z
			 M1014,1032.1c-6.1,5.3-10.2,12.1-12.3,20.5h68.9c-1.5-8.4-5.2-15.2-11.3-20.5c-6.1-5.3-13.6-7.9-22.8-7.9
			C1027.6,1024.2,1020.1,1026.9,1014,1032.1z"/>
		<path fill="#6C7579" d="M1178,1025.4c-9.4,0-17,3-22.6,9.1c-5.6,6.1-8.4,14.6-8.4,25.6v64.4h-24.8v-119.1h24.8v12.4l1.6-1.6
			c0.7-0.7,2.3-1.9,4.6-3.6c2.3-1.7,4.8-3.1,7.4-4.5c2.6-1.3,6-2.5,10.1-3.6s8.2-1.6,12.3-1.6h6.2v23.6
			C1185.8,1025.8,1182.1,1025.4,1178,1025.4z"/>
		<path fill="#6C7579" d="M1324.7,952c8.1,2.3,14.8,5.1,20,8.4c5.3,3.3,9.9,6.6,13.9,9.8c4,3.2,6.9,6,8.7,8.4l2.7,3.4l-17.3,17.4
			c-0.5-0.6-1.2-1.6-2.1-2.7c-0.9-1.2-3-3.3-6.4-6.4c-3.3-3.1-6.9-5.7-10.7-7.9c-3.8-2.2-8.7-4.3-14.8-6.2
			c-6.1-1.9-12.5-2.8-19.3-2.8c-18,0-33.3,6.2-45.8,18.7c-12.5,12.5-18.8,27.7-18.8,45.7c0,18,6.2,33.3,18.7,45.8
			c12.5,12.5,27.8,18.8,45.8,18.8c6.8,0,13.3-0.9,19.4-2.8c6.2-1.9,11.3-4.2,15.4-6.8c4.1-2.7,7.7-5.3,10.8-7.9
			c3.1-2.6,5.4-4.9,7-6.7l1.9-3l17.4,17.4c-0.6,1-1.6,2.2-3,3.8c-1.3,1.6-4.3,4.3-8.8,8.3c-4.6,4-9.4,7.5-14.5,10.5
			c-5.1,3.1-11.8,5.8-20.1,8.3c-8.3,2.5-16.8,3.7-25.5,3.7c-26,0-47.8-8.6-65.4-25.9c-17.6-17.3-26.4-38.4-26.4-63.3
			c0-25,8.8-46.1,26.4-63.4c17.6-17.3,39.4-25.9,65.4-25.9C1308.2,948.5,1316.7,949.7,1324.7,952z"/>
		<path fill="#6C7579" d="M1481.6,1112.3l-1.6,1.6c-0.7,0.7-2.2,1.9-4.5,3.6c-2.3,1.7-4.8,3.1-7.4,4.5c-2.7,1.3-6,2.5-10.1,3.6
			c-4,1-8.2,1.6-12.4,1.6c-14.4,0-26-4.7-34.9-14.1c-8.9-9.4-13.4-22.1-13.4-38v-69.4h24.8v69.4c0,8.6,2.7,15.7,8.2,21.3
			s12.2,8.5,20.3,8.5c9.4,0,17-3,22.6-9.1c5.6-6.1,8.4-14.6,8.4-25.6v-64.4h24.8v119.1h-24.8V1112.3z"/>
		<path fill="#6C7579" d="M1557.3,965.8h22.3v39.7h24.8v22.3h-24.8v61.8c0,4.4,1.4,8.1,4.2,10.9c2.8,2.8,6.4,4.2,10.7,4.2
			c1.9,0,3.8-0.2,5.9-0.6c2.1-0.4,3.7-0.8,4.8-1.3l1.8-0.5v22.3c-4.9,1.6-10.7,2.4-17.4,2.4c-23.2,0-34.7-12.4-34.6-37.2v-62h-22.4
			v-22.3h12.5c8.2,0,12.4-5,12.4-14.9V965.8z"/>
	</g>
</g>
</svg>
